<svg width="38" height="46" viewBox="0 0 38 46" fill="none" xmlns="http://www.w3.org/2000/svg">
<path fill-rule="evenodd" clip-rule="evenodd" d="M9.42346 6.26847L18.9501 0.691406L28.5672 6.26847L25.9619 7.63915L18.9501 3.26169L11.6416 7.82792L9.42346 6.26847ZM34.9178 10.0129L32.3885 11.4604L28.0462 8.85496L30.6623 7.49434L34.9178 10.0129ZM9.89522 16.4872L3.45585 12.7637L8.53699 9.79666L5.97145 8.1366L0.689453 11.1549V34.5969L9.89522 39.9292V16.4872ZM7.12846 24.3222V18.571L3.07812 16.1587V21.9076L7.12846 24.3222ZM7.12846 34.4907V28.1046L3.07812 25.69V32.1539L7.12846 34.4907ZM28.3067 20.6443V16.9123L37.5125 11.58V15.1611L28.3067 20.6443ZM37.5125 20.9091L28.3067 26.3923V30.0238L37.5125 24.5406V20.9091ZM37.5125 31.2672V34.5009L28.3067 40.0069V36.5995L37.5125 31.2672ZM26.697 17.5939L19.0507 22.0207L11.6056 17.5939L11.6057 21.2756L17.5377 24.8829V30.8203L11.6057 27.2932L11.6056 30.9749L17.5377 34.5823V40.7807L11.6057 37.2535L11.6056 40.9353L19.0507 45.4627L26.697 40.9353L26.6971 37.2535L20.6642 40.7463V34.547L26.697 30.9749L26.6971 27.2932L20.6642 30.7859V24.8477L26.6971 21.2756L26.697 17.5939ZM24.3118 37.1671L26.7434 35.8021V32.6511L24.3118 34.1167V37.1671ZM26.5698 14.2395C28.2965 14.2395 29.6963 13.3841 29.6963 12.3289C29.6963 11.2737 28.2965 10.4183 26.5698 10.4183C24.8431 10.4183 23.4433 11.2737 23.4433 12.3289C23.4433 13.3841 24.8431 14.2395 26.5698 14.2395Z" fill="url(#paint0_linear)"/>
<defs>
<linearGradient id="paint0_linear" x1="19.101" y1="0.691406" x2="19.101" y2="45.4627" gradientUnits="userSpaceOnUse">
<stop stop-color="#0075FF"/>
<stop offset="1" stop-color="#23CAFF"/>
</linearGradient>
</defs>
</svg>
